<svg width="308" height="50" viewBox="0 0 308 50" fill="none" xmlns="http://www.w3.org/2000/svg">
<g clip-path="url(#clip0_286_2137)">
<path d="M197.392 46.6839V2.46631H235.03V12.2579H210.219V19.5865H232.704V29.3782H210.219V36.8649H235.03V46.6831L197.392 46.6843V46.6839Z" fill="black"/>
<path d="M114.182 49.0442C107.503 49.0442 101.817 46.7632 97.2156 42.114C92.6139 37.4648 90.3569 31.7187 90.3569 24.9702C90.3569 18.2217 92.6132 12.5715 97.2168 7.91875C101.821 3.26565 107.503 0.896973 114.182 0.896973C120.86 0.896973 126.546 3.26797 131.147 7.91836C135.749 12.5688 138.097 18.224 138.097 24.9702C138.097 31.7164 135.75 37.4632 131.147 42.114C126.545 46.7644 120.861 49.0442 114.182 49.0442ZM114.182 37.5544C117.702 37.5544 120.588 36.3691 122.936 33.9974C125.284 31.6256 126.454 28.6181 126.454 24.9702C126.454 21.3223 125.282 18.3152 122.936 15.9438C120.589 13.5728 117.702 12.3879 114.182 12.3879C110.661 12.3879 107.776 13.572 105.428 15.9438C103.171 18.3148 101.999 21.3219 101.999 24.9702C101.999 28.6185 103.171 31.6275 105.427 33.997C107.774 36.3687 110.66 37.554 114.181 37.554" fill="black"/>
<path d="M71.6507 2.48425H61.0149L44.6774 36.1245V2.47729H21.4215L-3.05176e-05 46.6752H12.4667L31.8683 7.10953L31.8404 46.6957L49.7392 46.6941C51.1445 46.6941 52.4571 45.7913 53.0863 44.5218L71.6507 7.07204V46.6949H84.4597V2.47729L71.6507 2.48425Z" fill="black"/>
<path d="M179.237 2.49438L156.804 42.1296V2.49438H143.995V46.695H165.446C166.871 46.695 168.19 45.9344 168.916 44.6942L193.609 2.49438H179.237V2.49438Z" fill="black"/>
<path d="M259.029 13.6225H257.49L257.167 2.81296H257.138L254.309 13.6225H251.598L248.931 2.81296H248.902L248.579 13.6225H247.129L247.466 2.66455H250.441L252.991 13.4741H253.02L255.717 2.66455H258.677L259.029 13.6225H259.029Z" fill="black"/>
<path d="M260.919 8.14361C260.919 4.6047 262.707 2.5166 265.741 2.5166C268.774 2.5166 270.548 4.60431 270.548 8.14361C270.548 11.6829 268.759 13.7706 265.741 13.7706C262.722 13.7706 260.919 11.6825 260.919 8.14361V8.14361ZM268.964 8.14361C268.964 5.40431 267.763 3.79002 265.741 3.79002C263.718 3.79002 262.487 5.40392 262.487 8.14361C262.487 10.8833 263.689 12.4972 265.741 12.4972C267.792 12.4972 268.964 10.8833 268.964 8.14361V8.14361Z" fill="black"/>
<path d="M280.703 10.4685C280.703 12.4527 279.34 13.6225 277.01 13.6225H272.598V2.66455H276.907C278.783 2.66455 279.882 3.5828 279.882 5.15226C279.882 6.5737 278.798 7.41775 276.966 7.41775V7.4475H277.171C279.398 7.4475 280.703 8.57291 280.703 10.4682L280.703 10.4685ZM276.409 3.89391H274.137V7.41813H276.409C277.596 7.41813 278.299 6.78123 278.299 5.6709C278.299 4.56057 277.596 3.89391 276.409 3.89391ZM279.12 10.4685C279.12 9.28401 278.358 8.57329 277.083 8.57329H274.137V12.3935H277.083C278.358 12.3935 279.12 11.6681 279.12 10.4685V10.4685Z" fill="black"/>
<path d="M282.638 2.66455H284.176V13.6225H282.638V2.66455Z" fill="black"/>
<path d="M293.262 12.3491V13.6225H286.814V2.66455H288.353V12.3487H293.262V12.3491Z" fill="black"/>
<path d="M302.217 12.3935V13.6225H294.859V2.66455H302.055V3.89353H296.398V7.35862H301.542V8.60266H296.398V12.3935H302.216H302.217Z" fill="black"/>
<path d="M248.828 20.3528V23.9361H253.24V25.1651H248.828V30.0814H247.29V19.1238H254.002V20.3528H248.829H248.828Z" fill="black"/>
<path d="M255.672 19.1238H257.211V30.0818H255.672V19.1238Z" fill="black"/>
<path d="M268.041 30.0814H266.312L263.732 25.4909H261.387V30.0814H259.849V19.1238H263.835C266.253 19.1238 267.689 20.2639 267.689 22.1742C267.689 24.2472 266.282 25.4615 263.908 25.4615V25.4913C264.802 25.4913 265.682 26.0095 266.209 26.9425L268.041 30.0818V30.0814ZM263.938 24.3063C265.316 24.3063 266.107 23.5659 266.107 22.2924C266.107 21.019 265.301 20.3528 263.938 20.3528H261.388V24.3063H263.938Z" fill="black"/>
<path d="M269.008 26.2907H270.532C270.649 27.9641 271.69 28.9562 273.331 28.9562C274.973 28.9562 276.028 28.2455 276.028 27.0165C276.028 25.5062 274.592 25.2839 273.067 25.047C271.294 24.7657 269.316 24.4546 269.316 22.1446C269.316 20.101 270.796 18.9756 273.302 18.9756C275.647 18.9756 277.127 20.3823 277.288 22.7367H275.778C275.69 21.1673 274.738 20.249 273.243 20.249C271.748 20.249 270.869 20.9006 270.869 22.0407C270.869 23.3288 272.188 23.5363 273.639 23.7585C275.485 24.0546 277.596 24.3804 277.596 26.8832C277.596 28.9859 275.998 30.2296 273.301 30.2296C270.781 30.2296 269.183 28.7784 269.007 26.2907H269.008Z" fill="black"/>
<path d="M286.345 20.3528H283.062V30.0814H281.524V20.3528H278.241V19.1238H286.345V20.3528V20.3528Z" fill="black"/>
<path d="M253.518 43.7805H248.55L247.7 46.5349H246.132L249.737 35.5769H252.448L256.024 46.5349H254.368L253.518 43.7805V43.7805ZM253.137 42.5365L251.056 35.7249H251.027L248.931 42.5365H253.137Z" fill="black"/>
<path d="M266.077 40.8188V46.5347H264.641V42.5811H264.612C264.612 45.1577 263.22 46.6827 260.845 46.6827C258.354 46.6827 256.786 44.595 256.786 41.0557C256.786 37.5164 258.574 35.4287 261.593 35.4287C263.997 35.4287 265.623 36.939 265.99 39.4565H264.524C264.202 37.7386 263.102 36.7021 261.593 36.7021C259.556 36.7021 258.369 38.316 258.369 41.0557C258.369 43.7954 259.527 45.4093 261.506 45.4093C263.484 45.4093 264.539 44.1061 264.598 41.9144H261.359V40.8188H266.078H266.077Z" fill="black"/>
<path d="M275.618 45.3054V46.5344H268.261V35.5764H275.457V36.8054H269.8V40.2705H274.944V41.5145H269.8V45.3054H275.618V45.3054Z" fill="black"/>
<path d="M285.803 35.5769V46.5349H283.18L279.003 35.7253H278.973L279.032 46.5349H277.552V35.5769H280.19L284.366 46.3865H284.396L284.352 35.5769H285.803H285.803Z" fill="black"/>
<path d="M292.632 46.6827C289.628 46.6827 287.855 44.595 287.855 41.0557C287.855 37.5164 289.628 35.4287 292.632 35.4287C295.094 35.4287 296.75 36.9835 297.117 39.5748H295.651C295.314 37.768 294.2 36.7021 292.632 36.7021C290.625 36.7021 289.423 38.316 289.423 41.0557C289.423 43.7954 290.625 45.4093 292.632 45.4093C294.215 45.4093 295.314 44.3137 295.651 42.4625H297.117C296.75 45.0982 295.08 46.6827 292.632 46.6827V46.6827Z" fill="black"/>
<path d="M307.566 35.5769L302.217 46.5349H300.546L302.554 42.3444H301.088L297.79 35.5773H299.564L302.729 42.1964H302.759L305.895 35.5773H307.566V35.5769Z" fill="black"/>
</g>
<defs>
<clipPath id="clip0_286_2137">
<rect width="307.566" height="48.1472" fill="white" transform="translate(0 0.896973)"/>
</clipPath>
</defs>
</svg>
